<svg width="40" height="40" viewBox="0 0 40 40" fill="none" xmlns="http://www.w3.org/2000/svg">
<rect width="40" height="40" rx="20" fill="url(#paint0_linear_1_6)"/>
<path d="M27 23C28.49 21.54 30 19.79 30 17.5C30 16.0413 29.4205 14.6424 28.3891 13.6109C27.3576 12.5795 25.9587 12 24.5 12C22.74 12 21.5 12.5 20 14C18.5 12.5 17.26 12 15.5 12C14.0413 12 12.6424 12.5795 11.6109 13.6109C10.5795 14.6424 10 16.0413 10 17.5C10 19.8 11.5 21.55 13 23L20 30L27 23Z" stroke="white" stroke-width="2" stroke-linecap="round" stroke-linejoin="round"/>
<path d="M11.22 21H17.5L18 20L20 24.5L22 17.5L23.5 21H28.77" stroke="white" stroke-width="2" stroke-linecap="round" stroke-linejoin="round"/>
<defs>
<linearGradient id="paint0_linear_1_6" x1="20" y1="0" x2="20" y2="40" gradientUnits="userSpaceOnUse">
<stop stop-color="#FF5FAA"/>
<stop offset="1" stop-color="#FE2A20"/>
</linearGradient>
</defs>
</svg>
